<?xml version="1.0" encoding="utf-8"?>
<!-- Generator: Adobe Illustrator 22.0.1, SVG Export Plug-In . SVG Version: 6.00 Build 0)  -->
<svg version="1.1" id="Layer_1" xmlns="http://www.w3.org/2000/svg" xmlns:xlink="http://www.w3.org/1999/xlink" x="0px" y="0px"
	 viewBox="0 0 48 48" style="enable-background:new 0 0 48 48;" xml:space="preserve">
<style type="text/css">
	.st0{fill:#333333;}
	.st1{fill:#494949;}
	.st2{fill:#666666;}
	.st3{fill:#878787;}
	.st4{fill:none;stroke:#B2B2B2;stroke-width:2;stroke-miterlimit:10;}
</style>
<g>
	<path class="st0" d="M16.6,14.5c0.3,1-0.2,2-0.5,2.9c-0.6,2-0.4,4.1-0.7,6.1c0,0.1,0,0.1-0.1,0.2c-0.1,0.1-0.2,0.1-0.3,0.1
		c-1.3,0.2-2.7,0.5-3.9,0c-0.3-0.1-0.5-0.3-0.8-0.3c-1.1-0.2-2.3,0.9-3.2,0.2c-0.3-1.4-0.6-2.9-0.3-4.3c0.1-0.6,0.4-1.1,0.7-1.6
		c0.7-1.4,1-3.3,2.6-3.5C12.1,14,14.6,14.5,16.6,14.5z"/>
	<path class="st1" d="M16.4,33.1c0.4,0,0.8,0,1.2,0.2c0.3,0.2,0.5,0.5,0.7,0.7c0.7,0.9,1.3,1.9,2,2.8c0.9,1.4,1.9,3,1.7,4.6
		c-2.9-0.8-5.7-2-8.3-3.6c-1-0.6-4.1-2.6-3.5-4.1C10.6,32.6,15.2,33.2,16.4,33.1z"/>
	<path class="st2" d="M30.4,14.6c-3.2,0-6.3,0-9.5,0.1c-3.5,0-6.9,0-10.4,0.1c-0.5,0-1.2-0.2-1.1-0.7c0-0.1,0.1-0.3,0.2-0.4
		c0.7-1,1.5-2.1,2.4-2.9c1.3-1.1,2.8-1.8,4.4-2.5c2.3-1.1,6.8-3.4,9.2-1.7C28,8.2,29.7,11.8,30.4,14.6z"/>
	<path class="st3" d="M42,23.9c-0.1,2.3-0.4,4.6-1.1,6.7c-1.7,4.8-6.1,8.3-10.9,10c-1.2,0.4-2.5,0.8-3.8,0.6c0.7-1.7,1.9-3.2,3-4.7
		c2.1-3,3.5-6.3,4.3-9.8c0.4-1.8,0.2-2.8,2.3-2.8C37.8,23.8,39.9,23.9,42,23.9z"/>
	<path class="st2" d="M24.1,25.8c0-0.6,0-1.3-0.4-1.7c-0.4-0.4-0.9-0.4-1.5-0.5c-2.2-0.1-4.3-0.1-6.5,0.1c-0.1,0-0.1,0-0.2,0.1
		c-0.1,0.1-0.1,0.1-0.1,0.2c-0.2,1.5,0.1,3.1,0.5,4.6c0.2,0.9,0.4,1.8,0.8,2.7c0.4,0.8,1.1,1.6,2,1.9c0.7,0.2,1.4,0.2,2.1,0.1
		c0.8-0.1,2.1,0.1,2.8-0.2c1-0.5,0.6-0.5,0.4-1.7C23.9,29.5,24,27.7,24.1,25.8z"/>
	<path class="st0" d="M24.3,21.6c0,0.6,0,1.3,0.4,1.7c0.4,0.4,0.9,0.4,1.5,0.5c2.2,0.1,4.3,0.1,6.5-0.1c0.1,0,0.1,0,0.2-0.1
		c0.1-0.1,0.1-0.1,0.1-0.2c0.2-1.5-0.1-3.1-0.5-4.6c-0.2-0.9-0.4-1.8-0.8-2.7c-0.4-0.8-1.1-1.6-2-1.9c-0.7-0.2-1.4-0.2-2.1-0.1
		c-0.8,0.1-2.1-0.1-2.8,0.2c-1,0.5-0.6,0.5-0.4,1.7C24.5,17.9,24.4,19.8,24.3,21.6z"/>
	<g>
		<g>
			<circle class="st4" cx="24" cy="24" r="18.1"/>
			<path class="st4" d="M23.1,5.9c0,0-18.6,15.3,0,36.2"/>
			<path class="st4" d="M24.9,5.9c0,0,18.6,15.3,0,36.2"/>
			<line class="st4" x1="8.6" y1="14.4" x2="38.7" y2="14.4"/>
			<line class="st4" x1="5.9" y1="24" x2="42.1" y2="24"/>
			<line class="st4" x1="8.6" y1="33.6" x2="38.7" y2="33.6"/>
		</g>
		<line class="st4" x1="24" y1="5.9" x2="24" y2="42.1"/>
	</g>
</g>
</svg>
