<?xml version="1.0" encoding="utf-8"?>
<!-- Generator: Adobe Illustrator 22.0.1, SVG Export Plug-In . SVG Version: 6.00 Build 0)  -->
<svg version="1.1" id="Layer_1" xmlns="http://www.w3.org/2000/svg" xmlns:xlink="http://www.w3.org/1999/xlink" x="0px" y="0px"
	 viewBox="0 0 48 48" style="enable-background:new 0 0 48 48;" xml:space="preserve">
<style type="text/css">
	.st0{fill:#333333;}
	.st1{fill:#494949;}
	.st2{fill:#666666;}
	.st3{fill:#878787;}
	.st4{fill:none;stroke:#B2B2B2;stroke-width:1.5;stroke-miterlimit:10;}
</style>
<g>
	<path class="st0" d="M17.2,15.5c0.2,0.9-0.2,1.8-0.5,2.7C16.2,20,16.3,22,16,23.8c0,0.1,0,0.1-0.1,0.2s-0.1,0.1-0.2,0.1
		c-1.2,0.2-2.5,0.4-3.6,0c-0.3-0.1-0.5-0.2-0.8-0.3c-1-0.2-2.1,0.8-2.9,0.2c-0.3-1.3-0.6-2.6-0.3-3.9c0.1-0.5,0.4-1,0.6-1.5
		c0.6-1.3,1-3,2.4-3.3C13.1,15.1,15.3,15.5,17.2,15.5z"/>
	<path class="st1" d="M17,32.7c0.4,0,0.8,0,1.1,0.2c0.3,0.2,0.5,0.4,0.7,0.7c0.6,0.9,1.2,1.7,1.8,2.6c0.9,1.3,1.7,2.7,1.6,4.3
		c-2.7-0.7-5.3-1.9-7.6-3.3c-0.9-0.6-3.7-2.4-3.2-3.8C11.7,32.2,15.9,32.7,17,32.7z"/>
	<path class="st2" d="M30,15.6c-2.9,0-5.8,0-8.7,0.1c-3.2,0-6.4,0-9.6,0.1c-0.5,0-1.1-0.2-1-0.6c0-0.1,0.1-0.2,0.2-0.3
		c0.7-0.9,1.3-1.9,2.2-2.7c1.2-1,2.6-1.7,4-2.3c2.2-1,6.3-3.1,8.5-1.5C27.7,9.7,29.3,13,30,15.6z"/>
	<path class="st3" d="M39.7,24.1c-0.1,2.1-0.3,4.2-1,6.2c-1.6,4.4-5.6,7.6-10,9.2c-1.1,0.4-2.3,0.7-3.5,0.6c0.6-1.6,1.7-2.9,2.7-4.3
		c1.9-2.7,3.3-5.8,4-9.1c0.4-1.7,0.2-2.6,2.1-2.6C35.9,24.1,37.8,24.1,39.7,24.1z"/>
	<path class="st2" d="M24.1,25.9c0-0.6,0-1.2-0.4-1.6C23.4,24,22.9,24,22.4,24c-2-0.1-4-0.1-6,0.1c-0.1,0-0.1,0-0.2,0.1
		c-0.1,0-0.1,0.1-0.1,0.2c-0.2,1.4,0.1,2.8,0.4,4.2c0.2,0.8,0.4,1.7,0.8,2.5s1,1.4,1.8,1.7c0.6,0.2,1.3,0.2,2,0.1
		c0.7-0.1,1.9,0.1,2.6-0.2c0.9-0.4,0.6-0.5,0.4-1.5C23.9,29.4,24,27.6,24.1,25.9z"/>
	<path class="st0" d="M24.3,22c0,0.6,0,1.2,0.4,1.6C25,23.9,25.5,24,26,24c2,0.1,4,0.1,6-0.1c0.1,0,0.1,0,0.2-0.1
		c0.1,0,0.1-0.1,0.1-0.2c0.2-1.4-0.1-2.8-0.4-4.2c-0.2-0.8-0.4-1.7-0.8-2.5s-1-1.4-1.8-1.7c-0.6-0.2-1.3-0.2-2-0.1
		c-0.7,0.1-1.9-0.1-2.6,0.2c-0.9,0.4-0.6,0.5-0.4,1.5C24.5,18.6,24.4,20.3,24.3,22z"/>
	<g>
		<g>
			<circle class="st4" cx="24" cy="24" r="16"/>
			<path class="st4" d="M23.2,8c0,0-16.5,13.5,0,32.1"/>
			<path class="st4" d="M24.8,8c0,0,16.5,13.5,0,32.1"/>
			<line class="st4" x1="10.4" y1="15.5" x2="37.6" y2="15.5"/>
			<line class="st4" x1="8" y1="24" x2="40" y2="24"/>
			<line class="st4" x1="10.4" y1="32.5" x2="37.6" y2="32.5"/>
		</g>
		<line class="st4" x1="24" y1="8" x2="24" y2="40"/>
	</g>
</g>
</svg>
