<?xml version="1.0" encoding="utf-8"?>
<!-- Generator: Adobe Illustrator 22.0.1, SVG Export Plug-In . SVG Version: 6.00 Build 0)  -->
<svg version="1.1" id="Layer_1" xmlns="http://www.w3.org/2000/svg" xmlns:xlink="http://www.w3.org/1999/xlink" x="0px" y="0px"
	 viewBox="0 0 48 48" style="enable-background:new 0 0 48 48;" xml:space="preserve">
<style type="text/css">
	.st0{fill:none;stroke:#B2B2B2;stroke-width:1.5;stroke-miterlimit:10;}
	.st1{fill:none;stroke:#8F53A1;stroke-linecap:round;stroke-miterlimit:10;}
	.st2{fill:#333333;}
	.st3{fill:#FFFFFF;stroke:#FFFFFF;stroke-miterlimit:10;}
</style>
<g>
	<g>
		<g>
			<circle class="st0" cx="24" cy="28.5" r="13.9"/>
			<path class="st0" d="M23.3,14.6c0,0-14.3,11.7,0,27.7"/>
			<path class="st0" d="M24.7,14.6c0,0,14.3,11.7,0,27.7"/>
			<line class="st0" x1="12.2" y1="21.1" x2="35.3" y2="21.1"/>
			<line class="st0" x1="10.1" y1="28.5" x2="37.9" y2="28.5"/>
			<line class="st0" x1="12.2" y1="35.8" x2="35.3" y2="35.8"/>
		</g>
		<line class="st0" x1="24" y1="14.6" x2="24" y2="42.3"/>
	</g>
	<g>
		<path class="st1" d="M24.5,12"/>
		<path class="st2" d="M31.1,27.8c0,0,4.5-8.3,5.6-11.4s2-5.1,0-8.5S31.1,5,31.1,5s-3-0.4-5.6,2.9s-0.6,7.1,0,8.5
			S30.1,26.6,31.1,27.8z"/>
		<circle class="st3" cx="31.1" cy="12" r="3.8"/>
	</g>
</g>
</svg>
