<?xml version="1.0" encoding="utf-8"?>
<!-- Generator: Adobe Illustrator 22.0.1, SVG Export Plug-In . SVG Version: 6.00 Build 0)  -->
<svg version="1.1" id="Layer_1" xmlns="http://www.w3.org/2000/svg" xmlns:xlink="http://www.w3.org/1999/xlink" x="0px" y="0px"
	 viewBox="0 0 48 48" style="enable-background:new 0 0 48 48;" xml:space="preserve">
<style type="text/css">
	.st0{fill:none;stroke:#B2B2B2;stroke-width:2;stroke-miterlimit:10;}
	.st1{fill:none;stroke:#8F53A1;stroke-width:0.25;stroke-linecap:round;stroke-miterlimit:10;}
	.st2{fill:#333333;}
	.st3{fill:#FFFFFF;stroke:#FFFFFF;stroke-width:0.25;stroke-miterlimit:10;}
</style>
<g>
	<g>
		<circle class="st0" cx="24" cy="24" r="18.1"/>
		<path class="st0" d="M23.1,5.9c0,0-18.6,15.3,0,36.2"/>
		<path class="st0" d="M24.9,5.9c0,0,18.6,15.3,0,36.2"/>
		<line class="st0" x1="8.6" y1="14.4" x2="38.7" y2="14.4"/>
		<line class="st0" x1="5.9" y1="24" x2="42.1" y2="24"/>
		<line class="st0" x1="8.6" y1="33.6" x2="38.7" y2="33.6"/>
	</g>
	<line class="st0" x1="24" y1="5.9" x2="24" y2="42.1"/>
</g>
<g>
	<path class="st1" d="M26.8,8.3"/>
	<path class="st2" d="M33.2,23.7c0,0,4.4-8,5.4-11.1s1.9-5,0-8.3s-5.4-2.8-5.4-2.8s-3-0.4-5.4,2.8s-0.5,6.9,0,8.3
		S32.2,22.5,33.2,23.7z"/>
	<circle class="st3" cx="33.2" cy="8.3" r="3.7"/>
</g>
</svg>
