<?xml version="1.0" encoding="UTF-8" standalone="no"?>
<!-- Generator: Adobe Illustrator 16.0.0, SVG Export Plug-In . SVG Version: 6.00 Build 0)  -->

<svg
   xmlns:dc="http://purl.org/dc/elements/1.1/"
   xmlns:cc="http://creativecommons.org/ns#"
   xmlns:rdf="http://www.w3.org/1999/02/22-rdf-syntax-ns#"
   xmlns:svg="http://www.w3.org/2000/svg"
   xmlns="http://www.w3.org/2000/svg"
   xmlns:sodipodi="http://sodipodi.sourceforge.net/DTD/sodipodi-0.dtd"
   xmlns:inkscape="http://www.inkscape.org/namespaces/inkscape"
   version="1.1"
   id="Capa_1"
   x="0px"
   y="0px"
   width="512px"
   height="512px"
   viewBox="0 0 512 512"
   style="enable-background:new 0 0 512 512;"
   xml:space="preserve"
   sodipodi:docname="GeoMap.svg"
   inkscape:version="0.92.1 r15371"><metadata
     id="metadata6490"><rdf:RDF><cc:Work
         rdf:about=""><dc:format>image/svg+xml</dc:format><dc:type
           rdf:resource="http://purl.org/dc/dcmitype/StillImage" /><dc:title></dc:title></cc:Work></rdf:RDF></metadata><defs
     id="defs6488" /><sodipodi:namedview
     pagecolor="#ffffff"
     bordercolor="#666666"
     borderopacity="1"
     objecttolerance="10"
     gridtolerance="10"
     guidetolerance="10"
     inkscape:pageopacity="0"
     inkscape:pageshadow="2"
     inkscape:window-width="1918"
     inkscape:window-height="1042"
     id="namedview6486"
     showgrid="false"
     inkscape:zoom="0.921875"
     inkscape:cx="118.35085"
     inkscape:cy="211.57285"
     inkscape:window-x="0"
     inkscape:window-y="18"
     inkscape:window-maximized="0"
     inkscape:current-layer="Capa_1" /><path
     inkscape:connector-curvature="0"
     id="path6451"
     d="m 405.25596,54 c -40.84814,0 -73.95336,33.106148 -73.95336,73.95336 0,11.03569 2.42659,21.52136 6.75934,30.91066 l 67.19402,131.78674 67.19403,-131.78766 c 4.33274,-9.38838 6.75934,-19.87405 6.75934,-30.90974 C 479.20933,87.106148 446.1041,54 405.25596,54 Z m 0,118.32538 c -24.49705,0 -44.37201,-19.87496 -44.37201,-44.37202 0,-24.49705 19.87496,-44.372015 44.37201,-44.372015 24.49706,0 44.37202,19.874965 44.37202,44.372015 0,24.49706 -19.87496,44.37202 -44.37202,44.37202 z m 22.1287,140.02053 26.92365,53.81863 -68.26266,34.11654 -22.87932,-114.45392 3.84188,-3.84188 0.40489,-0.4049 -14.09736,-27.73251 -7.22247,7.22155 L 257.34924,201.90673 168.6052,261.06942 109.44251,201.90673 20.698473,379.3948 139.02385,438.55749 257.34924,379.3948 375.67462,438.55749 494,379.3948 444.08148,279.58642 Z m -298.7605,87.93517 -68.233993,-34.11654 57.140993,-114.33929 30.1591,30.1591 3.84188,3.84188 z m 113.9344,-46.56751 -82.73532,41.36766 21.37714,-106.85706 3.81322,-2.54215 57.54496,-38.36331 z m 29.58135,0 V 247.31871 l 57.54496,38.36331 3.78456,2.54215 21.37715,106.85706 z"
     style="stroke-width:0.92441702" /><g
     id="g6455" /><g
     id="g6457" /><g
     id="g6459" /><g
     id="g6461" /><g
     id="g6463" /><g
     id="g6465" /><g
     id="g6467" /><g
     id="g6469" /><g
     id="g6471" /><g
     id="g6473" /><g
     id="g6475" /><g
     id="g6477" /><g
     id="g6479" /><g
     id="g6481" /><g
     id="g6483" /><path
     style="opacity:1;fill:#666;fill-opacity:1;fill-rule:nonzero;stroke:black;stroke-width:0;stroke-linecap:butt;stroke-linejoin:miter;stroke-miterlimit:4;stroke-dasharray:none;stroke-dashoffset:0;stroke-opacity:1"
     d="m 108.79111,202.75949 c -29.142668,58.78732 -59.168352,117.16358 -87.453378,176.35997 4.329537,4.39016 11.575896,5.96007 16.890412,9.38504 33.4281,16.81331 66.920746,33.49993 100.387166,50.23789 32.72508,-15.40088 65.07191,-32.4037 97.65183,-48.42007 7.02502,-3.51297 14.05003,-7.02594 21.07504,-10.53892 39.30953,19.6525 78.61945,39.30419 117.92977,58.95508 32.15574,-15.12286 63.95983,-31.78728 95.9412,-47.58439 7.19676,-4.15965 15.79315,-6.88697 22.17266,-11.91124 -15.33123,-32.901 -31.64793,-65.42324 -48.44375,-97.61609 -3.1033,-1.08122 -3.84743,4.64601 -5.60135,6.43174 -4.11751,8.13383 -8.79956,16.24343 -12.08597,24.62828 8.69782,17.71582 17.92852,35.20802 26.01098,53.19118 -21.94288,11.09893 -44.46985,22.74117 -66.43073,32.74827 -8.62127,-37.32235 -15.48154,-75.0264 -23.16135,-112.54974 7.22689,-3.69669 1.20408,-9.72719 -1.02715,-14.7284 -3.28385,-5.29861 -5.16723,-12.18957 -9.3314,-16.56664 -4.08144,1.09907 -6.33354,8.72593 -10.42679,3.65394 -28.40319,-18.71001 -56.36115,-38.14094 -85.22296,-56.1244 -11.6893,5.98498 -22.44839,14.37007 -33.69703,21.37509 -18.53074,12.2979 -37.01664,24.67014 -55.52684,37.00224 -19.72635,-19.35831 -38.90786,-39.6024 -58.97076,-58.41258 z m 133.09843,97.51425 c 0,17.69449 0,35.38898 0,53.08347 -27.09887,13.50274 -54.1076,27.18877 -81.31933,40.46283 6.74237,-35.28078 13.91963,-70.47293 21.5965,-105.56177 19.80071,-13.46288 39.81149,-26.61361 59.72283,-39.91248 0,17.30931 0,34.61863 0,51.92795 z m 60.44356,-32.241 c 10.21036,6.80713 20.42073,13.61426 30.6311,20.42139 6.86197,34.99382 14.32525,70.71914 20.88556,105.26211 -27.13748,-13.12308 -54.0373,-26.8874 -81.03141,-40.36099 -2e-5,-34.99858 0,-69.99717 0,-104.99575 9.83824,6.55774 19.67649,13.11549 29.51475,19.67324 z M 118.38194,253.66706 c 11.08587,10.57878 21.78644,21.56682 32.65817,32.38005 -7.83553,37.51884 -14.33192,75.76018 -23.46296,112.74168 C 105.44091,388.15548 83.22717,377.12173 61.477408,365.90147 79.630665,328.00505 98.42781,290.34499 117.69645,253.04034 Z"
     id="path7070"
     inkscape:connector-curvature="0" /></svg>