<?xml version="1.0" encoding="UTF-8" standalone="no"?>
<svg
   xmlns:dc="http://purl.org/dc/elements/1.1/"
   xmlns:cc="http://creativecommons.org/ns#"
   xmlns:rdf="http://www.w3.org/1999/02/22-rdf-syntax-ns#"
   xmlns:svg="http://www.w3.org/2000/svg"
   xmlns="http://www.w3.org/2000/svg"
   xmlns:sodipodi="http://sodipodi.sourceforge.net/DTD/sodipodi-0.dtd"
   xmlns:inkscape="http://www.inkscape.org/namespaces/inkscape"
   version="1.1"
   id="Layer_1"
   x="0px"
   y="0px"
   viewBox="0 0 48 48"
   style="enable-background:new 0 0 48 48;"
   xml:space="preserve"
   sodipodi:docname="GeoTransform.svg"
   inkscape:version="1.0.2 (e86c8708, 2021-01-15)"><metadata
   id="metadata866"><rdf:RDF><cc:Work
       rdf:about=""><dc:format>image/svg+xml</dc:format><dc:type
         rdf:resource="http://purl.org/dc/dcmitype/StillImage" /></cc:Work></rdf:RDF></metadata><defs
   id="defs864" /><sodipodi:namedview
   pagecolor="#ffffff"
   bordercolor="#666666"
   borderopacity="1"
   objecttolerance="10"
   gridtolerance="10"
   guidetolerance="10"
   inkscape:pageopacity="0"
   inkscape:pageshadow="2"
   inkscape:window-width="1749"
   inkscape:window-height="939"
   id="namedview862"
   showgrid="false"
   inkscape:zoom="12.11"
   inkscape:cx="24"
   inkscape:cy="24"
   inkscape:window-x="0"
   inkscape:window-y="25"
   inkscape:window-maximized="0"
   inkscape:current-layer="Layer_1"
   inkscape:document-rotation="0" />
<style
   type="text/css"
   id="style833">
	.st0{fill:none;stroke:#B2B2B2;stroke-width:2;stroke-miterlimit:10;}
	.st1{fill:none;stroke:#8F53A1;stroke-width:0.25;stroke-linecap:round;stroke-miterlimit:10;}
	.st2{fill:#333333;}
	.st3{fill:#FFFFFF;stroke:#FFFFFF;stroke-width:0.25;stroke-miterlimit:10;}
</style>
<g
   id="g851">
	<g
   id="g847">
		<circle
   class="st0"
   cx="24"
   cy="24"
   r="18.1"
   id="circle835" />
		<path
   class="st0"
   d="m 23.1,5.9 c 0,0 -18.6,15.3 0,36.2"
   id="path837" />
		<path
   class="st0"
   d="m 24.9,5.9 c 0,0 18.6,15.3 0,36.2"
   id="path839" />
		<line
   class="st0"
   x1="8.6000004"
   y1="14.4"
   x2="38.700001"
   y2="14.4"
   id="line841" />
		<line
   class="st0"
   x1="5.9000001"
   y1="24"
   x2="42.099998"
   y2="24"
   id="line843" />
		<line
   class="st0"
   x1="8.6000004"
   y1="33.599998"
   x2="38.700001"
   y2="33.599998"
   id="line845" />
	</g>
	<line
   class="st0"
   x1="24"
   y1="5.9000001"
   x2="24"
   y2="42.099998"
   id="line849" />
</g>

<g
   id="g1555"
   transform="matrix(1.2160877,0,0,1.2160877,-4.7201554,6.4264784)"><g
     id="g887"
     transform="translate(-0.53315442,-12.549133)"><path
       d="m 36.7,27.5 -2.4,1 c -1.7,-4 -5.6,-6.8 -9.9,-7.1 l 0.2,-2.6 c 5.2,0.3 10,3.7 12.1,8.7 z"
       id="path881" /><g
       id="g885"><polygon
         points="25,16.3 26.1,24.1 18.7,21.1 "
         id="polygon883" /></g></g><g
     id="g895"
     transform="translate(-0.53315442,-12.549133)"><path
       d="M 23.8,35.2 C 18.4,34.9 13.6,31.5 11.6,26.5 l 2.4,-1 c 1.7,4 5.6,6.8 9.9,7.1 z"
       id="path889" /><g
       id="g893"><polygon
         points="23.3,37.7 22.2,29.9 29.6,32.9 "
         id="polygon891" /></g></g></g></svg>
